PathFileType	4	(x/y/z)	S02_M20_T05
DataRate	CameraRate	NumFrames	NumMarkers	Units	OrigDataRate	OrigDataStartFrame	OrigNumFrames
240	240	4	51	mm	240	402	459
Frame#	Time	Sternum			R.Acromium			L.Acromium			Top.Head			R.ASIS			L.ASIS			R.PSIS			L.PSIS			R.Great.Tro			L.Great.Tro			R.Iliac.Crest			L.Iliac.Crest			V.Sacral			R.Thigh.Upper.Post			R.Thigh.Lower.Ant			R.Thigh.Lower.Post			R.Thigh.Upper.Ant			R.Knee.Lat			R.Knee.Med			R.Shank.Upper.Post			R.Shank.Lower.Ant			R.Shank.Lower.Post			R.Shank.Upper.Ant			R.Ankle.Lat			R.Ankle.Med			R.Heel.Upper			R.Heel.Med			R.Heel.Lat			R.Toe.Lat			R.Toe.Med			R.Toe.Tip			L.Thigh.Upper.Post			L.Thigh.Lower.Ant			L.Thigh.Lower.Post			L.Thigh.Upper.Ant			L.Knee.Lat			L.Knee.Med			L.Shank.Upper.Post			L.Shank.Lower.Ant			L.Shank.Lower.Post			L.Shank.Upper.Ant			L.Ankle.Lat			L.Ankle.Med			L.Heel.Upper			L.Heel.Med			L.Heel.Lat			L.Toe.Lat			L.Toe.Med			L.Toe.Tip			Cervical.Spine			Back			
		X1	Y1	Z1	X2	Y2	Z2	X3	Y3	Z3	X4	Y4	Z4	X5	Y5	Z5	X6	Y6	Z6	X7	Y7	Z7	X8	Y8	Z8	X9	Y9	Z9	X10	Y10	Z10	X11	Y11	Z11	X12	Y12	Z12	X13	Y13	Z13	X14	Y14	Z14	X15	Y15	Z15	X16	Y16	Z16	X17	Y17	Z17	X18	Y18	Z18	X19	Y19	Z19	X20	Y20	Z20	X21	Y21	Z21	X22	Y22	Z22	X23	Y23	Z23	X24	Y24	Z24	X25	Y25	Z25	X26	Y26	Z26	X27	Y27	Z27	X28	Y28	Z28	X29	Y29	Z29	X30	Y30	Z30	X31	Y31	Z31	X32	Y32	Z32	X33	Y33	Z33	X34	Y34	Z34	X35	Y35	Z35	X36	Y36	Z36	X37	Y37	Z37	X38	Y38	Z38	X39	Y39	Z39	X40	Y40	Z40	X41	Y41	Z41	X42	Y42	Z42	X43	Y43	Z43	X44	Y44	Z44	X45	Y45	Z45	X46	Y46	Z46	X47	Y47	Z47	X48	Y48	Z48	X49	Y49	Z49	X50	Y50	Z50	X51	Y51	Z51	

402	1.6708	646.46	1106.5	276.88	529.08	1343.8	408.85	548.37	1337.9	117.4	590.36	1622.9	278.63	634.61	938.35	383.17	622.66	918.55	168.02	415.62	958.23	347.61	402.92	962.45	274.54	586.38	824.56	488.11	484.23	840.69	99.648	536.84	985.29	447.51	493.06	962.9	114.81	386.36	909.86	306.28	675.37	642.66	480.2	752.4	590.31	437.94	694.54	555.02	465.21	727.94	676.13	450.07	738.42	491.1	448.07	729.84	468	305.53	704.18	274.62	440.76	796.33	213.88	434.04	729.28	205.3	435.43	776.75	280.62	446.46	770.24	113.06	429.46	785.41	128.99	347.61	723.68	81.595	368.16	748.78	56.021	342.18	731.05	50.716	403.2	880.14	86.518	465.94	924.26	97.686	366.14	953.26	136.24	426.89	427.21	625.66	133.35	487.79	533.61	138.57	411.31	539.12	158.23	497.06	625.87	114.77	455.26	457.26	153.03	456.28	458.38	291.3	345.64	300.52	165.54	402.65	205.55	181.19	334.25	229.29	185.01	407.47	279.77	162.53	346.56	106.6	199.46	358.58	105.77	281.99	283.69	81.279	237.78	291.89	54.802	271.19	285.98	53.12	209.67	449.64	34.535	174.88	475.28	44.606	283.92	535.06	54.942	235.06	465.02	1400.5	258.29	388.82	1149.1	269.8
403	1.675	651.17	1105.6	277.02	533.86	1342.8	409.28	553.11	1337.2	117.9	595.5	1621.9	279.39	639.83	937.65	383.21	627.09	917.96	168.01	420.67	957.4	348.43	407.65	961.74	275.45	591.98	823.73	488.1	488.1	840.45	99.949	542.15	984.38	447.89	497.22	962.19	115.31	391.16	909.11	307.14	681.44	642.23	479.92	758.34	589.99	437.31	700.72	554.61	464.97	733.75	675.77	449.43	744.86	490.91	447.82	735.77	467.52	305.26	714.61	273.98	441.38	807.91	214.99	434.04	741	205.12	435.93	787.16	281.39	446.46	783.77	113.55	429.86	797.84	129.62	347.86	737.23	81.087	369.14	762.56	55.945	343.02	745.47	50.446	404.17	894.46	89.095	465.44	937.47	100.92	365.22	966.29	140.11	425.61	429.67	626.02	133.62	489.51	533.48	138.56	413.13	539.59	158.46	499.45	625.68	114.79	456.49	457.34	153.03	457.7	458.32	291.35	346.26	300.96	165.67	403	205.8	181.11	334.68	229.78	185.13	408.02	280	162.48	346.72	106.9	199.52	358.85	106.06	282.02	283.84	81.653	237.83	291.99	55.189	271.26	286.06	53.47	209.74	449.65	34.512	174.86	475.32	44.632	283.88	535.1	54.889	235.02	469.83	1399.7	258.78	393.5	1148.3	270.28
404	1.6792	655.9	1104.7	277.18	538.67	1341.9	409.73	557.87	1336.4	118.41	600.66	1620.9	280.16	645.06	936.91	383.25	631.54	917.33	168.02	425.76	956.54	349.26	412.41	961.02	276.35	597.57	822.85	488.09	491.99	840.2	100.23	547.48	983.43	448.28	501.41	961.45	115.8	395.98	908.33	308	687.47	641.75	479.64	764.27	589.61	436.71	706.87	554.14	464.72	739.55	675.36	448.82	751.27	490.68	447.59	741.71	467.01	305.01	724.94	273.4	441.99	819.31	216.12	434.03	752.58	205.01	436.41	797.43	282.18	446.44	797.11	114.12	430.23	810.09	130.3	348.09	750.6	80.681	370.08	776.14	55.96	343.81	759.67	50.29	405.1	908.53	91.71	464.91	950.41	104.14	364.27	979.07	143.95	424.31	432.13	626.35	133.91	491.26	533.33	138.55	414.99	540.03	158.71	501.86	625.47	114.82	457.75	457.4	153.03	459.2	458.24	291.41	346.91	301.41	165.81	403.36	206.05	181.04	335.13	230.28	185.26	408.6	280.23	162.42	346.89	107.2	199.59	359.12	106.35	282.05	283.99	82.031	237.88	292.09	55.577	271.33	286.15	53.826	209.81	449.66	34.488	174.85	475.35	44.659	283.84	535.14	54.835	234.97	474.65	1398.8	259.28	398.2	1147.5	270.77
405	1.6833	660.64	1103.7	277.35	543.5	1340.9	410.2	562.62	1335.5	118.93	605.82	1619.9	280.95	650.31	936.12	383.3	636.01	916.66	168.02	430.87	955.67	350.08	417.19	960.27	277.26	603.15	821.93	488.07	495.91	839.91	100.5	552.85	982.46	448.67	505.62	960.7	116.29	400.83	907.54	308.86	693.48	641.22	479.37	770.18	589.18	436.14	712.98	553.63	464.48	745.34	674.9	448.26	757.66	490.42	447.38	747.64	466.46	304.78	735.17	272.86	442.57	830.55	217.26	433.99	764	204.96	436.87	807.56	282.97	446.4	810.23	114.75	430.56	822.16	131.02	348.3	763.76	80.366	370.98	789.5	56.055	344.55	773.65	50.236	405.98	922.32	94.349	464.36	963.09	107.34	363.32	991.58	147.76	423.01	434.62	626.67	134.22	493.04	533.17	138.53	416.89	540.45	158.98	504.26	625.25	114.84	459.05	457.45	153.03	460.79	458.14	291.46	347.6	301.87	165.95	403.74	206.29	180.96	335.6	230.78	185.4	409.21	280.45	162.36	347.06	107.51	199.66	359.41	106.64	282.09	284.15	82.415	237.94	292.2	55.968	271.41	286.24	54.19	209.88	449.66	34.464	174.84	475.39	44.686	283.79	535.18	54.781	234.92	479.48	1397.9	259.79	402.92	1146.6	271.29
